<svg xmlns="http://www.w3.org/2000/svg" width="956.075" height="956.075" viewBox="-84.721 -53.425 584.996 383.086"><path fill="#8c9da7" d="M244.06 86.688c-22.738 0-36.607 9.316-44.858 18.83h-.693V90.642h-29.114v152.54h32.599v-90.549c.202-8.027 3.155-37.212 35.495-37.212 31.8 0 39.032 22.184 39.032 39.5v59.546c0 7.911 2.093 15.611 8.549 22.143 8.006 8.1 24.067 6.554 24.067 6.554v-87.653c0-29.934-18.607-68.822-65.076-68.822zm160.863 2.115c-43.124 0-78.081 34.958-78.081 78.082s34.957 78.082 78.08 78.082c17.565 0 33.775-5.8 46.819-15.589 1.44 2.86 3.708 6.14 7.335 9.26 9.076 7.808 20.548 4.525 20.548 4.525V90.66h-29.2v12.78a77.73 77.73 0 0 0-45.5-14.636zm.642 28.993c27.23 0 49.297 22.067 49.297 49.297s-22.067 49.297-49.297 49.297-49.315-22.067-49.315-49.297 22.085-49.297 49.315-49.297m-254-27.143H113.65L-1.715 243.166h39.593Z"/><g fill="#f4793b" transform="translate(101.875 -287.815)scale(.55488)"><circle cx="-128.223" cy="517.219" r="13.887" transform="translate(-7.663 153.277)scale(1.04854)"/><circle cx="-128.223" cy="517.219" r="13.887" transform="translate(58.405 62.656)scale(1.28913)"/><path d="M-68.469 748.987c-11.898 0-21.531 9.665-21.531 21.563 0 4.574 1.443 8.793 3.875 12.281h-.031s37.084 55.403 54.5 83.812c15.954 26.025 24.677 53.815 45.781 79.313 5.268 6.365 13.372 10.42 21.344 12.594 12.632 3.445 39.281 0 39.281 0s-22.078-56.803-56.063-110.22C-3.97 812.719-42.1 768.14-51.28 757.55c-.103-.12-.06-.077-.157-.188-.558-.721-1.136-1.418-1.78-2.062l-.094-.094a21.52 21.52 0 0 0-15.157-6.219zM-299.063 575.05s44.629 35.474 65.002 52.884c20.9 17.861 45.723 41.422 50.655 46.397a11.2 11.2 0 0 0 1.687 1.719c.075.061.143.128.219.187a11.18 11.18 0 0 0 6.906 2.375c6.18 0 11.188-5.007 11.188-11.187 0-3.71-1.815-6.995-4.594-9.032 0 0-.496-.319-.531-.343-1.525-1.052-28.098-19.728-51.773-34.98-25.673-16.54-78.758-48.02-78.758-48.02z"/></g></svg>