<?xml version="1.0" encoding="UTF-8" standalone="no"?>
<svg
   xmlns:dc="http://purl.org/dc/elements/1.1/"
   xmlns:cc="http://creativecommons.org/ns#"
   xmlns:rdf="http://www.w3.org/1999/02/22-rdf-syntax-ns#"
   xmlns:svg="http://www.w3.org/2000/svg"
   xmlns="http://www.w3.org/2000/svg"
   xmlns:xlink="http://www.w3.org/1999/xlink"
   xmlns:sodipodi="http://sodipodi.sourceforge.net/DTD/sodipodi-0.dtd"
   xmlns:inkscape="http://www.inkscape.org/namespaces/inkscape"
   width="563.999"
   height="563.999"
   viewBox="0 0 149.225 149.225"
   version="1.1"
   id="svg885"
   sodipodi:docname="compass.svg"
   inkscape:version="0.92.4 (5da689c313, 2019-01-14)">
  <metadata
     id="metadata889">
    <rdf:RDF>
      <cc:Work
         rdf:about="">
        <dc:format>image/svg+xml</dc:format>
        <dc:type
           rdf:resource="http://purl.org/dc/dcmitype/StillImage" />
        <dc:title></dc:title>
      </cc:Work>
    </rdf:RDF>
  </metadata>
  <sodipodi:namedview
     pagecolor="#ffffff"
     bordercolor="#666666"
     borderopacity="1"
     objecttolerance="10"
     gridtolerance="10"
     guidetolerance="10"
     inkscape:pageopacity="0"
     inkscape:pageshadow="2"
     inkscape:window-width="1920"
     inkscape:window-height="1017"
     id="namedview887"
     showgrid="false"
     inkscape:zoom="0.7668453"
     inkscape:cx="300.06282"
     inkscape:cy="175.5029"
     inkscape:window-x="-8"
     inkscape:window-y="363"
     inkscape:window-maximized="1"
     inkscape:current-layer="g883" />
  <defs
     id="defs851">
    <linearGradient
       id="e">
      <stop
         style="stop-color:#a6a9a6;stop-opacity:1"
         offset="0"
         id="stop815" />
      <stop
         style="stop-color:#d2d1d1;stop-opacity:1"
         offset="1"
         id="stop817" />
    </linearGradient>
    <linearGradient
       id="d">
      <stop
         style="stop-color:maroon;stop-opacity:1"
         offset="0"
         id="stop820" />
      <stop
         style="stop-color:red;stop-opacity:1"
         offset="1"
         id="stop822" />
    </linearGradient>
    <linearGradient
       id="c">
      <stop
         style="stop-color:#a6a9a6;stop-opacity:1"
         offset="0"
         id="stop825" />
      <stop
         offset=".572"
         style="stop-color:#6f716f;stop-opacity:1"
         id="stop827" />
      <stop
         style="stop-color:#000;stop-opacity:1"
         offset="1"
         id="stop829" />
    </linearGradient>
    <linearGradient
       id="b">
      <stop
         style="stop-color:#ffece5;stop-opacity:1"
         offset="0"
         id="stop832" />
      <stop
         offset=".273"
         style="stop-color:#fff4e3;stop-opacity:1"
         id="stop834" />
      <stop
         style="stop-color:#ffba64;stop-opacity:1"
         offset="1"
         id="stop836" />
    </linearGradient>
    <linearGradient
       id="a">
      <stop
         style="stop-color:#b09a6c;stop-opacity:1"
         offset="0"
         id="stop839" />
      <stop
         style="stop-color:#331b00;stop-opacity:1"
         offset="1"
         id="stop841" />
    </linearGradient>
    <linearGradient
       xlink:href="#d"
       id="h"
       x1="20.225"
       y1="141.804"
       x2="20.064"
       y2="90.399"
       gradientUnits="userSpaceOnUse" />
    <linearGradient
       xlink:href="#e"
       id="i"
       x1="19.658"
       y1="146.871"
       x2="20.333"
       y2="203.55"
       gradientUnits="userSpaceOnUse" />
    <radialGradient
       xlink:href="#b"
       id="f"
       cx="121.605"
       cy="120.905"
       fx="121.605"
       fy="120.905"
       r="74.612"
       gradientUnits="userSpaceOnUse"
       gradientTransform="matrix(0.88895692,0,0,0.88895692,-3.1016059,41.020664)" />
    <radialGradient
       xlink:href="#c"
       id="j"
       cx="105.438"
       cy="147.73"
       fx="105.438"
       fy="147.73"
       r="8.152"
       gradientUnits="userSpaceOnUse" />
    <clipPath
       clipPathUnits="userSpaceOnUse"
       id="g">
      <path
         style="opacity:1;vector-effect:none;fill:#e5e5cf;fill-opacity:1;stroke:none;stroke-width:6.96500015;stroke-linecap:square;stroke-linejoin:miter;stroke-miterlimit:4;stroke-dasharray:none;stroke-dashoffset:0;stroke-opacity:1"
         d="M102.632 76.082A62.731 62.732 0 0 0 39.9 138.814a62.731 62.732 0 0 0 62.732 62.731 62.731 62.732 0 0 0 62.73-62.731 62.731 62.732 0 0 0-62.73-62.732Zm0 12.596a50.136 50.136 0 0 1 50.135 50.136 50.136 50.136 0 0 1-50.135 50.135 50.136 50.136 0 0 1-50.136-50.135 50.136 50.136 0 0 1 50.136-50.136Z"
         id="path848" />
    </clipPath>
    <radialGradient
       inkscape:collect="always"
       xlink:href="#a"
       id="radialGradient852"
       gradientUnits="userSpaceOnUse"
       gradientTransform="matrix(1.0094736,0.44092994,-0.65397596,1.4972253,78.579761,-75.514632)"
       cx="66.900215"
       cy="155.01244"
       fx="66.900215"
       fy="155.01244"
       r="74.612" />
  </defs>
  <g
     transform="translate(-30.388 -73.888)"
     id="g883">
    <circle
       id="circle850"
       style="opacity:0.99;vector-effect:none;fill:url(#radialGradient852);fill-opacity:1;stroke:url(#radialGradient887);stroke-width:13.75800037;stroke-linecap:square;stroke-linejoin:miter;stroke-miterlimit:4;stroke-dasharray:none;stroke-dashoffset:0;stroke-opacity:1"
       cx="105.0005"
       cy="148.5005"
       r="74.612633" />
    <circle
       r="60.21172"
       cy="148.5"
       cx="105"
       style="opacity:1;vector-effect:none;fill:url(#f);fill-opacity:1;stroke:url(#radialGradient887);stroke-width:13.75800037;stroke-linecap:square;stroke-linejoin:miter;stroke-miterlimit:4;stroke-dasharray:none;stroke-dashoffset:0;stroke-opacity:1"
       id="circle853" />
    <g
       clip-path="url(#g)"
       style="stroke-width:1.03084838"
       transform="matrix(.97007 0 0 .97007 5.44 13.84)"
       id="g859">
      <path
         style="opacity:1;vector-effect:none;fill:gray;fill-opacity:.99215686;stroke:#000;stroke-width:3.76388502;stroke-linecap:square;stroke-linejoin:miter;stroke-miterlimit:4;stroke-dasharray:none;stroke-dashoffset:0;stroke-opacity:1"
         d="M102.632 77.964v121.7M163.481 138.814H41.782M145.659 95.787 59.604 181.84M145.659 181.84 59.604 95.788"
         id="path855" />
      <path
         style="opacity:1;vector-effect:none;fill:gray;fill-opacity:.99215686;stroke:#000;stroke-width:.27274534;stroke-linecap:square;stroke-linejoin:miter;stroke-miterlimit:4;stroke-dasharray:none;stroke-dashoffset:0;stroke-opacity:1"
         d="M133.056 191.51 72.206 86.117M118.38 197.59 86.882 80.038M86.882 197.59l31.499-117.552M72.207 191.51l60.85-105.394M49.934 169.238l105.395-60.85M43.855 154.563l117.553-31.498M43.855 123.065l117.553 31.498M49.934 108.389l105.395 60.85"
         id="path857" />
    </g>
    <g
       aria-label="N"
       style="font-style:normal;font-weight:400;font-size:27.17746544px;line-height:1.25;font-family:sans-serif;letter-spacing:0;word-spacing:0;fill:#000000;fill-opacity:1;stroke:none;stroke-width:0.26458335"
       id="text863">
      <path
         d="m 96.623707,117.3563 1.534017,-0.39861 q 0.241577,-0.0604 0.398603,-0.25365 0.169104,-0.20534 0.169104,-0.459 v -13.31092 q 0,-0.27781 -0.169104,-0.459 -0.157026,-0.19326 -0.398603,-0.25365 l -1.654806,-0.37445 v -0.5677 h 4.058502 l 7.98413,11.47493 1.13542,1.6548 v 0 -11.45077 q 0,-0.27781 -0.16911,-0.459 -0.15702,-0.19326 -0.3986,-0.25365 l -1.53401,-0.39861 v -0.5677 h 5.25431 v 0.5677 l -1.53402,0.39861 q -0.24158,0.0604 -0.41068,0.25365 -0.16911,0.19326 -0.16911,0.459 v 12.19966 l -0.36236,2.88685 h -0.67642 l -8.64847,-12.41708 -1.268286,-1.84807 v 0 12.4654 q 0,0.27781 0.157025,0.47108 0.169101,0.18118 0.410681,0.24157 l 1.53402,0.39861 v 0.5677 h -5.242233 z"
         style="font-style:normal;font-variant:normal;font-weight:400;font-stretch:normal;font-family:'Sitka Banner';-inkscape-font-specification:'Sitka Banner';stroke-width:0.26458335"
         id="path900" />
    </g>
    <g
       aria-label="S"
       transform="scale(-1)"
       style="font-style:normal;font-weight:400;font-size:27.17746544px;line-height:1.25;font-family:sans-serif;letter-spacing:0;word-spacing:0;fill:#000000;fill-opacity:1;stroke:none;stroke-width:0.26458338"
       id="text867">
      <path
         d="m -111.95316,-182.7975 h 0.64018 l 0.95423,2.4037 q 0.0604,0.14495 0.2295,0.33821 0.18118,0.19326 0.31405,0.27781 0.43484,0.27782 0.94215,0.50732 0.50731,0.22949 1.01462,0.3986 0.50732,0.15702 0.96631,0.25366 0.459,0.0846 0.80929,0.0846 0.76097,0 1.37699,-0.21742 0.6281,-0.21742 1.06294,-0.6281 0.44692,-0.42276 0.67642,-1.02671 0.24158,-0.61602 0.24158,-1.40115 0,-1.11125 -0.60395,-1.81183 -0.60394,-0.71265 -1.63065,-1.14749 -0.45899,-0.19326 -0.90591,-0.31405 -0.44692,-0.13287 -0.90592,-0.25366 -0.44692,-0.12079 -0.90591,-0.24158 -0.44692,-0.13286 -0.89384,-0.31405 -1.35283,-0.54355 -2.10172,-1.55817 -0.73681,-1.01463 -0.73681,-2.46409 0,-1.02671 0.3986,-1.92054 0.3986,-0.90592 1.09918,-1.57026 0.71265,-0.67641 1.67896,-1.05086 0.96631,-0.38652 2.08964,-0.38652 0.61603,0 1.21997,0.0725 0.60394,0.0604 1.18373,0.16911 0.57979,0.10871 1.12334,0.26573 0.54355,0.14495 1.05086,0.31405 v 3.92564 h -0.64018 l -0.83344,-2.2346 q -0.0604,-0.18118 -0.2295,-0.32613 -0.15703,-0.14494 -0.2899,-0.24157 -0.28989,-0.21742 -0.67641,-0.37445 -0.38653,-0.15702 -0.79721,-0.26573 -0.3986,-0.10871 -0.78513,-0.15703 -0.38652,-0.0604 -0.66433,-0.0604 -0.71266,0 -1.28036,0.20534 -0.55563,0.19326 -0.94216,0.54355 -0.38652,0.35028 -0.60394,0.84552 -0.20534,0.49523 -0.20534,1.07502 0,0.50731 0.0966,0.99047 0.0966,0.48315 0.35029,0.90591 0.25365,0.42276 0.68849,0.78513 0.44692,0.35028 1.12334,0.59186 0.43484,0.15703 0.8576,0.27782 0.43484,0.12079 0.86968,0.24157 0.43484,0.12079 0.88176,0.26574 0.45899,0.14495 0.95423,0.35029 0.55562,0.2295 1.08709,0.55562 0.54355,0.31406 0.96631,0.78513 0.42277,0.47108 0.67642,1.12334 0.26574,0.65226 0.26574,1.54609 0,0.95423 -0.35029,1.89639 -0.33821,0.93007 -1.0871,1.66688 -0.73681,0.73681 -1.89638,1.19581 -1.15957,0.459 -2.77814,0.459 -0.53147,0 -1.12334,-0.0966 -0.57978,-0.0845 -1.20789,-0.22949 -0.61602,-0.14495 -1.2562,-0.33821 -0.64018,-0.19326 -1.26828,-0.3986 z"
         style="font-style:normal;font-variant:normal;font-weight:400;font-stretch:normal;font-family:'Sitka Banner';-inkscape-font-specification:'Sitka Banner';stroke-width:0.26458338"
         id="path891" />
    </g>
    <g
       aria-label="W"
       transform="rotate(-90)"
       style="font-style:normal;font-weight:400;font-size:27.17746544px;line-height:1.25;font-family:sans-serif;letter-spacing:0;word-spacing:0;fill:#000000;fill-opacity:1;stroke:none;stroke-width:0.26458341"
       id="text871">
      <path
         d="m -156.92012,61.122487 q -0.0725,-0.241578 -0.27781,-0.43484 -0.19326,-0.193262 -0.43484,-0.265735 l -0.96631,-0.289893 v -0.567707 h 5.76162 v 0.567707 l -2.07757,0.398603 3.0922,10.279121 0.67641,2.234592 v 0 l 3.2613,-10.496541 1.2562,-2.983482 h 0.73681 l 3.38209,11.076327 0.76097,2.500327 v 0 l 3.94979,-12.562029 -2.05341,-0.446918 v -0.567707 h 4.6866 v 0.567707 l -0.96631,0.289893 q -0.24157,0.07247 -0.44692,0.289893 -0.19326,0.21742 -0.27781,0.458997 l -3.97395,12.22382 -1.24412,2.983482 h -0.78513 l -3.64782,-11.788981 -0.47108,-1.60649 v 0 l -3.26129,10.411989 -1.2562,2.983482 h -0.82137 z"
         style="font-style:normal;font-variant:normal;font-weight:400;font-stretch:normal;font-family:'Sitka Banner';-inkscape-font-specification:'Sitka Banner';stroke-width:0.26458341"
         id="path894" />
    </g>
    <g
       aria-label="E"
       transform="rotate(90)"
       style="font-style:normal;font-weight:400;font-size:27.17746544px;line-height:1.25;font-family:sans-serif;letter-spacing:0;word-spacing:0;fill:#000000;fill-opacity:1;stroke:none;stroke-width:0.26458338"
       id="text875">
      <path
         d="m 142.2247,-135.8297 1.53402,-0.32613 q 0.24158,-0.0604 0.3986,-0.25366 0.16911,-0.19326 0.16911,-0.45899 v -13.43171 q 0,-0.27782 -0.16911,-0.47108 -0.15702,-0.19326 -0.3986,-0.25365 l -1.53402,-0.31405 v -0.56771 h 12.12719 v 3.90148 h -0.67641 l -0.8576,-2.57281 q -0.0604,-0.18118 -0.16911,-0.30197 -0.10871,-0.12079 -0.32613,-0.12079 h -5.82201 v 6.60715 h 3.81692 q 0.24158,0 0.35029,-0.10871 0.10871,-0.10871 0.1691,-0.27782 l 0.6885,-1.98093 h 0.59186 v 5.66499 h -0.59186 l -0.6885,-1.95678 q -0.0604,-0.19326 -0.1691,-0.30197 -0.10871,-0.12079 -0.35029,-0.12079 h -3.81692 v 7.29564 h 6.8608 q 0.21742,0 0.32613,-0.10871 0.10871,-0.12079 0.1691,-0.31405 l 0.80928,-2.91101 h 0.67642 v 4.25177 H 142.2247 Z"
         style="font-style:normal;font-variant:normal;font-weight:400;font-stretch:normal;font-family:'Sitka Banner';-inkscape-font-specification:'Sitka Banner';stroke-width:0.26458338"
         id="path897" />
    </g>
    <path
       style="opacity:1;vector-effect:none;fill:url(#h);fill-opacity:1;stroke:none;stroke-width:6.96500063;stroke-linecap:square;stroke-linejoin:miter;stroke-miterlimit:4;stroke-dasharray:none;stroke-dashoffset:0;stroke-opacity:1"
       d="M14.366 144.999h11.935l-5.968-58.551Z"
       transform="translate(84.667 3.024)"
       id="path877" />
    <path
       d="M26.3 144.999H14.367l5.967 58.551z"
       style="opacity:1;vector-effect:none;fill:url(#i);fill-opacity:1;stroke:none;stroke-width:6.96500063;stroke-linecap:square;stroke-linejoin:miter;stroke-miterlimit:4;stroke-dasharray:none;stroke-dashoffset:0;stroke-opacity:1"
       transform="translate(84.667 3.024)"
       id="path879" />
    <circle
       style="opacity:1;vector-effect:none;fill:url(#j);fill-opacity:1;stroke:none;stroke-width:6.96500015;stroke-linecap:square;stroke-linejoin:miter;stroke-miterlimit:4;stroke-dasharray:none;stroke-dashoffset:0;stroke-opacity:1"
       cx="105.438"
       cy="147.73"
       r="8.152"
       id="circle881" />
  </g>
</svg>
