<?xml version="1.0" encoding="UTF-8" standalone="no"?>
<svg
   xmlns:dc="http://purl.org/dc/elements/1.1/"
   xmlns:cc="http://creativecommons.org/ns#"
   xmlns:rdf="http://www.w3.org/1999/02/22-rdf-syntax-ns#"
   xmlns:svg="http://www.w3.org/2000/svg"
   xmlns="http://www.w3.org/2000/svg"
   xmlns:sodipodi="http://sodipodi.sourceforge.net/DTD/sodipodi-0.dtd"
   xmlns:inkscape="http://www.inkscape.org/namespaces/inkscape"
   width="500"
   height="500"
   viewBox="0 0 132.29166 132.29166"
   version="1.1"
   id="svg5"
   inkscape:version="1.0.2 (e86c870879, 2021-01-15)"
   sodipodi:docname="tower-initiative.svg">
  <metadata
     id="metadata10">
    <rdf:RDF>
      <cc:Work
         rdf:about="">
        <dc:format>image/svg+xml</dc:format>
        <dc:type
           rdf:resource="http://purl.org/dc/dcmitype/StillImage" />
        <dc:title></dc:title>
      </cc:Work>
    </rdf:RDF>
  </metadata>
  <sodipodi:namedview
     id="namedview7"
     pagecolor="#ffffff"
     bordercolor="#eeeeee"
     borderopacity="1"
     inkscape:pageshadow="0"
     inkscape:pageopacity="0"
     inkscape:pagecheckerboard="false"
     inkscape:document-units="mm"
     showgrid="false"
     units="px"
     inkscape:zoom="0.67081229"
     inkscape:cx="274.90357"
     inkscape:cy="290.51281"
     inkscape:window-width="1920"
     inkscape:window-height="991"
     inkscape:window-x="-9"
     inkscape:window-y="-9"
     inkscape:window-maximized="1"
     inkscape:current-layer="layer1"
     inkscape:document-rotation="0"
     fit-margin-top="0"
     fit-margin-left="0"
     fit-margin-right="0"
     fit-margin-bottom="0" />
  <defs
     id="defs2" />
  <g
     inkscape:label="Layer 1"
     inkscape:groupmode="layer"
     id="layer1"
     transform="translate(0,4.6234902)">
    <g
       id="g957"
       transform="translate(10.219223)">
      <path
         id="rect2183"
         style="fill:#1a1a1a;fill-opacity:1;stroke:none;stroke-width:0.900463;stroke-linecap:round;stroke-linejoin:round;stop-color:#000000"
         d="M 2.417952,-4.6234902 C 1.0785061,-4.6234902 0,-3.5449843 0,-2.2055384 v 12.8731694 13.139693 9.361591 l 0.10573624,0.169966 c 0.15016448,7.549208 0.44276281,15.38994 0.76068927,17.900883 1.24536069,9.806328 4.49594749,19.992353 9.71681149,30.436746 8.97296,17.952629 22.354654,32.0917 41.26772,43.60222 2.141582,1.30284 3.951467,2.37897 4.021036,2.38911 0.28091,0.0415 6.471476,-3.79762 10.313215,-6.39267 13.918272,-9.40369 24.932682,-21.24719 32.767313,-35.237696 6.264239,-11.182771 10.662189,-23.921533 12.017229,-34.806012 0.33288,-2.669276 0.63034,-10.427771 0.78035,-17.896953 l 0.10312,-0.165594 V 23.813004 10.083897 -2.2055384 c 0,-1.3394459 -1.07851,-2.4179518 -2.41795,-2.4179518 H 87.681126 c -1.339449,0 -2.417954,1.0785059 -2.417954,2.4179518 V 10.083897 H 67.431761 V -0.41588689 c 0,-1.33944591 -1.078071,-2.41795201 -2.417515,-2.41795201 H 46.838971 c -1.339445,0 -2.417515,1.0785061 -2.417515,2.41795201 V 10.083897 H 26.590044 V -2.2055384 c 0,-1.3394459 -1.078506,-2.4179518 -2.417953,-2.4179518 z" />
      <path
         d="M 42.382108,98.050949 C 37.410147,96.416192 33.319955,95.065278 33.293015,95.04819 33.265418,95.032379 33.133349,93.971922 32.997338,92.69198 32.405327,87.065587 31.616198,82.748048 29.77775,75.067029 28.372955,69.196206 27.79737,66.17702 27.508921,63.158491 27.305232,61.023706 27.37948,58.348819 27.679757,57.032073 l 0.148495,-0.649832 -0.980334,-0.551272 c -4.166411,-2.340444 -6.778876,-5.731526 -7.935959,-10.300056 -1.14722,-4.532394 -0.571642,-9.409086 1.647251,-13.946079 2.031623,-4.155241 4.805731,-7.049586 8.646898,-9.021419 1.557226,-0.798983 1.747773,-0.776643 1.129479,0.131412 -1.488891,2.190635 -2.768844,5.171054 -3.259011,7.58903 -0.42709,2.109161 -0.291735,4.876693 0.323274,6.61987 1.077577,3.054011 3.615137,5.600772 7.372201,7.399799 l 1.254985,0.601209 1.613075,-1.067064 c 4.382585,-2.89763 10.365768,-5.046213 16.563803,-5.948355 1.522408,-0.222086 1.954097,-0.222086 3.477156,0 6.20724,0.905427 12.18056,3.050725 16.563145,5.948355 l 1.612425,1.06575 1.534886,-0.77073 c 4.232775,-2.125586 6.700686,-5.055412 7.480619,-8.880153 l 0.318011,-1.561172 0.348246,1.130141 c 0.190543,0.620921 0.409351,1.521092 0.486225,1.998773 0.131408,0.81804 0.146526,0.838408 0.262825,0.348242 0.06832,-0.287135 0.135348,-1.382452 0.148496,-2.434403 l 0.02427,-1.912042 0.620262,1.130142 c 0.341677,0.621577 0.770069,1.521091 0.952732,1.998774 L 88.367,36.82028 88.30257,35.560042 c -0.0361,-0.693198 -0.03483,-1.26024 0.0017,-1.26024 0.03678,0 0.247057,0.410663 0.467827,0.913313 l 0.400811,0.911997 0.349557,-1.043409 0.348238,-1.042752 0.477685,1.478382 c 0.262825,0.812125 0.516451,1.594025 0.565068,1.737921 0.05783,0.172149 0.227347,-0.0046 0.499363,-0.521705 l 0.412632,-0.7819 0.03027,0.868631 0.02959,0.86929 0.182663,-0.651802 c 0.229969,-0.822638 0.419861,-0.827895 0.571646,-0.0184 0.11498,0.613693 0.124839,0.62092 0.330499,0.238512 0.196462,-0.367953 0.2188,-0.3351 0.318011,0.453371 0.400152,3.175566 0.283853,5.476587 -0.410661,8.149503 -0.722763,2.783959 -2.709048,6.051513 -4.722279,7.771037 -0.868629,0.742477 -2.406805,1.783257 -3.580974,2.425862 -0.497394,0.271365 -0.519077,0.325243 -0.374524,0.956021 0.304876,1.333829 0.381093,3.99886 0.175435,6.144815 -0.284507,2.979763 -0.857456,5.983179 -2.27145,11.908538 -1.852909,7.759866 -2.636119,12.033376 -3.20119,17.451488 -0.144553,1.374562 -0.283849,2.516534 -0.310789,2.537562 -0.08016,0.06172 -18.330631,6.000923 -18.439703,6.000923 -0.05454,0 0.470449,-1.193223 1.166933,-2.651245 1.574316,-3.298432 2.61707,-5.966092 3.173594,-8.119271 0.472426,-1.829909 0.466512,-3.107889 -0.02431,-5.223612 -0.836431,-3.607261 -1.715578,-17.03689 -1.115025,-17.03689 0.108415,0 0.871262,0.228657 1.695209,0.508564 3.506723,1.189934 6.24075,0.787156 8.46752,-1.248412 1.063123,-0.97179 2.621007,-3.211705 3.298435,-4.74331 0.522363,-1.182705 0.559816,-1.118971 -1.184015,-2.008628 -3.299756,-1.683386 -7.577204,-1.308862 -14.194451,1.243812 -3.912786,1.508608 -3.938411,1.524377 -3.884532,2.214289 0.05454,0.683341 0.976391,2.564501 2.176183,4.437776 l 0.871255,1.360113 -0.12155,2.898944 c -0.06636,1.594682 -0.302248,4.589557 -0.52302,6.656008 l -0.401463,3.757063 -1.796402,2.114417 c -1.696523,1.996144 -1.81348,2.097334 -2.082875,1.806911 -0.157694,-0.170174 -0.972449,-1.117004 -1.813486,-2.105873 l -1.527,-1.797057 -0.404749,-3.766262 C 51.706151,77.283288 51.46961,74.284471 51.402589,72.69176 l -0.119585,-2.89763 0.871919,-1.36274 c 1.2011,-1.873933 2.122297,-3.755093 2.176834,-4.439748 0.05453,-0.689912 0.02891,-0.705024 -3.883876,-2.214289 -6.617897,-2.552017 -10.894695,-2.926541 -14.194444,-1.243155 -1.743837,0.889657 -1.706385,0.82658 -1.183365,2.008628 1.115688,2.524422 3.347715,5.180254 5.041616,5.999606 1.814793,0.878489 4.64738,0.838408 6.990449,-0.09856 0.616323,-0.246397 1.233959,-0.404748 1.373256,-0.351527 0.197118,0.07556 0.251654,0.481624 0.250997,1.883788 -0.0019,4.390469 -0.647204,11.708792 -1.32989,15.086739 -0.515135,2.549382 -0.479654,3.663098 0.188576,5.951634 0.623551,2.13347 1.502034,4.315565 2.975819,7.391908 0.699112,1.457363 1.178109,2.643356 1.065752,2.633506 -0.112357,-0.009 -4.272856,-1.353547 -9.244823,-2.988973 z"
         style="fill:#ff7600;fill-opacity:1;stroke-width:0.657059"
         id="path2" />
    </g>
  </g>
</svg>
