<svg xmlns="http://www.w3.org/2000/svg" xml:space="preserve" width="120" height="120" viewBox="0 0 31.75 31.75"><defs><marker id="a" markerHeight="1" markerWidth=".636" orient="auto-start-reverse" preserveAspectRatio="xMidYMid" refX="0" refY="0" style="overflow:visible" viewBox="0 0 0.636 1"><path d="M0-1h.585c.522 0 .784.631.415 1 .369.369.107 1-.415 1H0l-.1-1Z" style="fill:context-stroke;stroke-linecap:butt" transform="scale(.5)"/></marker><marker id="b" markerHeight="1" markerWidth=".636" orient="auto-start-reverse" preserveAspectRatio="xMidYMid" refX="0" refY="0" style="overflow:visible" viewBox="0 0 0.636 1"><path d="M0-1h.585c.522 0 .784.631.415 1 .369.369.107 1-.415 1H0l-.1-1Z" style="fill:context-stroke;stroke-linecap:butt" transform="scale(.5)"/></marker><marker id="c" markerHeight="1" markerWidth=".636" orient="auto-start-reverse" preserveAspectRatio="xMidYMid" refX="0" refY="0" style="overflow:visible" viewBox="0 0 0.636 1"><path d="M0-1h.585c.522 0 .784.631.415 1 .369.369.107 1-.415 1H0l-.1-1Z" style="fill:context-stroke;stroke-linecap:butt" transform="scale(.5)"/></marker><marker id="d" markerHeight="1" markerWidth=".636" orient="auto-start-reverse" preserveAspectRatio="xMidYMid" refX="0" refY="0" style="overflow:visible" viewBox="0 0 0.636 1"><path d="M0-1h.585c.522 0 .784.631.415 1 .369.369.107 1-.415 1H0l-.1-1Z" style="fill:context-stroke;stroke-linecap:butt" transform="scale(.5)"/></marker></defs><path d="M110.962 99.287c0-.586.516-1.485.852-1.485.519 0 .53.032-.993-2.82-.751-1.407-1.325-2.753-1.275-2.992.056-.268.574.503 1.361 2.024.7 1.352 1.438 2.674 1.643 2.939l.372.482.258-.43c.189-.315.434-.389.918-.275 1.082.255 1.208.582.224.582h-.901l-.157.625-.157.626-.696-.153-.696-.153-.158.63c-.149.594-.595.894-.595.4m-9.81-.532-.276-.515-.708.141-.707.141-.272-.508-.273-.51-.712.143c-.92.184-.925-.213-.006-.533l.705-.246.348.348.347.347 1.173-2.818c1.082-2.6 1.482-3.286 1.758-3.01.059.059-.379 1.2-.972 2.536-.592 1.336-1.154 2.688-1.248 3.004l-.17.575.5-.159.502-.159.38.735c.444.858.465 1.004.144 1.004-.13 0-.36-.232-.512-.516zm.81-18.648c-.627-.478-1.146-.981-.808-.091.138.362.146.681.02.76-.285.175-.398-.043-.6-1.16-.09-.504-.243-.926-.338-.936-.435-.046-1.423-.242-1.669-.331-.149-.054-.341-.537-.427-1.073-.165-1.032-.476-1.272-1.648-1.272-.393 0-.715-.11-.715-.245s.454-.245 1.007-.245h1.007l-.16-.857c-.193-1.024.267-1.196.489-.184.26 1.187.319 1.27 1.015 1.416 1.106.233 1.414.49 1.495 1.242.092.856.638 1.322 1.548 1.322.37 0 .75.124.844.276.118.191-.103.244-.72.172-1.16-.136-.304.55.038.747m0 0 3.48-2.941m0 0c-.048-.215-.105-.904-.955.177-.275.35-.641.585-.814.523-.199-.072.067-.47.727-1.088l1.041-.974v-3.227l-.483-.153c-.593-.188-1.521-1.324-1.332-1.63.075-.121.485.14.909.58l.772.803.088-.612c.127-.889.536-1.217.536-.431 0 .98.424 1.042 1.231.179.424-.454.728-.635.728-.433 0 .456-.456.99-1.286 1.503l-.673.418v3.09l.918.593c.582.376.948.818.999 1.205l.08.611-.71-.837c-.425-.501-.826-.766-.999-.66.018.409.001.317.004.356m3.576 2.834.663-.603-.796.16c-.5.1-.796.061-.796-.103 0-.143.465-.353 1.033-.465l1.033-.205.224-.973c.277-1.205.215-1.142 1.308-1.32l.91-.148.256-1.022c.373-1.487.718-1.638.513-.225l-.174 1.199.709-.142c.39-.078.812-.177.938-.219a.24.24 0 0 1 .303.16c.041.13-.4.35-.98.49l-1.052.253-.123.96-.122.96-1.103.265-1.102.265-.075 1.04c-.088 1.211-.537 1.42-.537.25v-.79l-.609.575m.051 8.299c.412.438.698.636.442-.17-.082-.257-.037-.537.099-.622s.313.155.392.53c.236 1.122.487 1.405 1.488 1.685l.954.266.122.957.123.958 1.163.211c1.496.272 1.551.737.061.513-1.187-.178-1.217-.141-.875 1.052.133.465.136.847.007.927-.12.075-.286-.172-.366-.548-.318-1.482-.54-1.75-1.506-1.83l-.928-.078-.14-.865c-.199-1.239-.403-1.461-1.335-1.461-.456 0-.897-.11-.98-.245-.088-.143.16-.245.598-.245 1.01 0 .652-.254.252-.595m0 0-3.892 1.985m0 0c.038.518.116.987 1.189-.187.413-.453.75-.68.75-.507 0 .608-.477 1.199-1.214 1.504l-.744.308v3.33l.832.515c.8.494 1.277 1.17 1.013 1.435-.07.07-.398-.167-.73-.525-.785-.847-1.115-.822-1.115.084 0 .404-.11.735-.245.735s-.245-.33-.245-.735c0-.938-.302-.93-1.052.03-.384.489-.66.664-.77.486-.096-.157.262-.704.826-1.263l.996-.986v-3.132l-.483-.154c-.588-.186-1.522-1.322-1.335-1.623.073-.12.418.12.765.533.92 1.094 1.077.793.966.15m0 0-4.125-1.708m0 0-.294.305.967-.147c1.227-.186.872.212-.549.616l-1.026.292-.076.902-.076.903-1.102.265-1.102.266-.075 1.03c-.097 1.324-.537 1.348-.537.03V92.37l-1.041.169c-1.249.203-1.015-.217.306-.548l.857-.215.23-1.023.23-1.024.984-.195.985-.194.255-1.018c.317-1.266.574-1.24.574-.624-.154 1.102-.18 1.224.105.826m-1.082 2.235.077-.795h-.579c-.737 0-1.166.429-1.166 1.166v.579l.796-.077.796-.077zm13.47.123-.076-.796-.796-.077-.796-.077v.486c0 .913.281 1.26 1.021 1.26h.725zm-13.424-13.4c0-.735-.539-1.234-1.331-1.234-.547 0-.51 1.371.045 1.695.827.482 1.286.317 1.286-.462m13.425-.193.077-.796h-.724c-.74 0-1.022.347-1.022 1.26v.485l.796-.076.796-.077zM91.29 90.85c-.137-.359.178-2.048.43-2.3.082-.082.513-.019.957.142 1.185.428 1.454.379 3.211-.587 1.872-1.029 2.78-1.007.985.023-.67.385-2.112 1.231-3.204 1.88-2.218 1.318-2.198 1.311-2.378.842m1.792-1.273c0-.048-.222-.205-.493-.35l-.494-.265-.212.562c-.303.8-.093.985.6.531.33-.216.6-.431.6-.478m25.84.675a56 56 0 0 0-3.001-1.746c-.842-.448-1.53-.91-1.53-1.026 0-.338.264-.246 2.18.761l1.813.954.958-.384c1.154-.461 1.37-.295 1.466 1.127.094 1.396-.122 1.432-1.887.314m1.448-.615c-.223-.727-.233-.731-.855-.398l-.551.295.584.44c.701.53 1.045.388.822-.337m-24.803-9.771-1.802-.975-.972.439-.972.438-.223-.352a1.7 1.7 0 0 1-.23-.719 5 5 0 0 0-.154-.915c-.278-1.04.542-.845 3.242.768 3.165 1.89 3.8 2.338 3.28 2.31-.202-.01-1.178-.458-2.17-.994m-2.872-1.073c.547-.21.481-.464-.2-.775-.694-.316-.874-.201-.705.448.133.507.289.564.905.327m21.695 1.896c0-.117.91-.736 2.02-1.377 1.112-.64 2.487-1.435 3.057-1.765 1.298-.752 1.621-.58 1.406.747-.229 1.408-.427 1.538-1.561 1.026l-.973-.439-1.84 1.01c-1.956 1.074-2.109 1.131-2.109.798m5.963-2.287c.195-.749.036-.82-.722-.323l-.652.427.339.214c.558.354.885.253 1.035-.318m-10.616-2.595c0-.123.598-1.48 1.33-3.014l1.33-2.79-.595-.078c-.658-.086-1.17-.82-1.02-1.466l.096-.416.334.692.335.692.79-.148.79-.149.166.522.166.522.721-.106c.997-.147 1.11.196.174.523-.568.198-.86.195-1.108-.011-.426-.354-.303-.532-1.732 2.51-1.087 2.314-1.777 3.37-1.777 2.717m-8.551-3.11c-1.318-2.833-1.557-3.147-1.834-2.424-.112.292-.326.35-.823.228-1.047-.259-1.25-.62-.346-.62h.79l.23-.609.232-.607.71.142.71.142.168-.672c.11-.44.252-.589.41-.432.399.4-.174 1.545-.773 1.545-.283 0-.475.083-.425.184 1.284 2.602 2.644 5.54 2.644 5.713 0 .719-.533-.097-1.693-2.59" style="fill:#000;stroke-width:.925678" transform="translate(-90.175 -67.786)"/><path d="M116.78 87.448c-3.09 10.307-17.98 9.86-21.133.201" style="fill:none;fill-opacity:1;stroke:#000;stroke-width:.529696;stroke-dasharray:none;stroke-opacity:1;marker-start:url(#a);marker-end:url(#b)" transform="translate(-90.175 -67.786)"/><path d="M95.524 80.225c3.088-10.308 17.979-9.86 21.132-.202" style="fill:none;fill-opacity:1;stroke:#000;stroke-width:.529696;stroke-dasharray:none;stroke-opacity:1;marker-start:url(#c);marker-end:url(#d)" transform="translate(-90.175 -67.786)"/></svg>